<svg width="140" height="70" viewBox="0 0 140 70" fill="none" xmlns="http://www.w3.org/2000/svg">
  <!-- Sweet Icon -->
  <g transform="translate(15, 10)">
    <!-- Sweet Box -->
    <rect x="0" y="12" width="40" height="30" rx="4" fill="#8B4513" />
    <rect x="2" y="14" width="36" height="26" rx="3" fill="#A0522D" />
    
    <!-- Decorative patterns on box -->
    <path d="M6 20C8 18 12 20 10 22C8 24 12 26 14 24" stroke="#D4AF37" stroke-width="1" />
    <path d="M26 20C28 18 32 20 30 22C28 24 32 26 34 24" stroke="#D4AF37" stroke-width="1" />
    <path d="M16 28C18 26 22 28 20 30C18 32 22 34 24 32" stroke="#D4AF37" stroke-width="1" />
    
    <!-- Sweets -->
    <circle cx="10" cy="22" r="4" fill="#D4AF37" />
    <circle cx="20" cy="18" r="4" fill="#F5DEB3" />
    <circle cx="30" cy="22" r="4" fill="#8B4513" />
    <circle cx="15" cy="28" r="4" fill="#DEB887" />
    <circle cx="25" cy="28" r="4" fill="#D4AF37" />
  </g>
  
  <!-- Text -->
  <g transform="translate(65, 18)">
    <!-- Alluraiah -->
    <text font-family="'Geizer', serif" font-size="16" fill="#D4AF37" font-weight="bold">Alluraiah</text>
    
    <!-- Sweets -->
    <text font-family="'Geizer', serif" font-size="20" fill="#D4AF37" y="22" font-weight="bold">Sweets</text>
    
    <!-- Tagline -->
    <text font-family="'Poppins', sans-serif" font-size="8" fill="#D4AF37" y="36" font-style="italic">Authentic Indian Delights</text>
  </g>
</svg>
